# xmcd
#
# Track frame offsets: 
#        150
#        33405
#        51225
#        74317
#
# Disc length: 1278 seconds
#
# Revision: 0
# Processed by: cddbd v1.5.2PL0 Copyright (c) Steve Scherf et al.
# Submitted via: ExactAudioCopyFreeDBPlugin 1.0
#
DISCID=3204fc04
DTITLE=The Black Flames - Watching You [CDS)
DYEAR=1990
DGENRE=Funk
TTITLE0=Watching You (Hip Hop Remix)
TTITLE1=Watching You (Radio Version)
TTITLE2=Stay Around (LP Version)
TTITLE3=Watching You (LP Version)
EXTD=
EXTT0=
EXTT1=
EXTT2=
EXTT3=
PLAYORDER=
